<svg width="94" height="28" viewBox="0 0 94 28" fill="none" xmlns="http://www.w3.org/2000/svg">
<g clip-path="url(#clip0_15_275)">
<path d="M30.3418 4.40112H33.2586V3.65631H31.2211V0H30.3418V4.40112ZM38.2893 5.47826C38.7501 5.47826 39.1503 5.36747 39.4111 5.12125C39.6415 4.90581 39.781 4.60419 39.781 4.161V1.24334H38.9866V1.57573H38.9744C38.7865 1.31105 38.5015 1.15716 38.1134 1.15716C37.325 1.15716 36.7672 1.76039 36.7672 2.70217C36.7672 3.65626 37.4464 4.21024 38.1376 4.21024C38.5318 4.21024 38.7683 4.05021 38.9502 3.84092H38.9684V4.18562C38.9684 4.61651 38.744 4.84426 38.2771 4.84426C37.8951 4.84426 37.7192 4.69037 37.6525 4.4934H36.8339C36.9188 5.10893 37.4403 5.47826 38.2893 5.47826ZM38.2771 3.5393C37.8526 3.5393 37.5737 3.22538 37.5737 2.68986C37.5737 2.16049 37.8526 1.8281 38.2711 1.8281C38.7683 1.8281 39.0109 2.22205 39.0109 2.6837C39.0109 3.15152 38.7986 3.5393 38.2771 3.5393ZM43.6276 0.75096H44.4523V0H43.6276V0.75096ZM43.6276 4.40112H44.4523V1.24339H43.6276V4.40112ZM49.5428 4.4934C50.319 4.4934 50.8527 4.11176 50.8527 3.47775C50.8527 2.73911 50.2766 2.59138 49.7551 2.48058C49.3124 2.38824 48.9 2.36362 48.9 2.09279C48.9 1.86504 49.1123 1.74193 49.4337 1.74193C49.7853 1.74193 49.9976 1.86504 50.034 2.20358H50.7799C50.7192 1.56958 50.2644 1.15716 49.4458 1.15716C48.7363 1.15716 48.1784 1.4834 48.1784 2.16665C48.1784 2.85606 48.7242 3.00994 49.282 3.12074C49.7065 3.20691 50.1007 3.23769 50.1007 3.5393C50.1007 3.7609 49.8945 3.90248 49.5306 3.90248C49.1608 3.90248 48.9061 3.74244 48.8515 3.37927H48.0874C48.1359 4.05021 48.6393 4.4934 49.5428 4.4934ZM54.3508 4.40106H55.1755V2.56675C55.1755 2.14818 55.3998 1.87735 55.7333 1.87735C56.0365 1.87735 56.2124 2.06201 56.2124 2.41902V4.40106H57.0371V2.56675C57.0371 2.14818 57.2494 1.87735 57.595 1.87735C57.8982 1.87735 58.0741 2.06201 58.0741 2.41902V4.40106H58.8988V2.27745C58.8988 1.58804 58.5288 1.15716 57.8739 1.15716C57.4798 1.15716 57.1523 1.36645 56.9401 1.71115H56.928C56.7763 1.37876 56.461 1.15716 56.0669 1.15716C55.6363 1.15716 55.3331 1.37876 55.1633 1.66806H55.1451V1.24334H54.3508V4.40106ZM53.9006 4.40114V1.24341H53.0759V3.06542C53.0759 3.48399 52.8393 3.77944 52.4513 3.77944C52.0995 3.77944 51.9358 3.57631 51.9358 3.20699V1.24341H51.1172V3.34856C51.1172 4.03797 51.5052 4.48732 52.1966 4.48732C52.6332 4.48732 52.8757 4.32112 53.088 4.03181H53.1062V4.40114H53.9006ZM44.9004 5.43517H45.7251V4.04405H45.7373C45.9131 4.31489 46.1982 4.4934 46.6347 4.4934C47.4352 4.4934 47.981 3.84708 47.981 2.82528C47.981 1.84042 47.4534 1.15716 46.6287 1.15716C46.2042 1.15716 45.9131 1.36029 45.713 1.63728H45.6949V1.24334H44.9004V5.43517ZM46.4589 3.79783C45.9677 3.79783 45.7069 3.42236 45.7069 2.8499C45.7069 2.2836 45.9131 1.83426 46.4286 1.83426C46.938 1.83426 47.1441 2.25283 47.1441 2.8499C47.1441 3.44698 46.8773 3.79783 46.4589 3.79783ZM41.7023 4.4934C42.6665 4.4934 43.3275 3.76706 43.3275 2.82528C43.3275 1.8835 42.6665 1.15716 41.7023 1.15716C40.7381 1.15716 40.0772 1.8835 40.0772 2.82528C40.0772 3.76706 40.7381 4.4934 41.7023 4.4934ZM41.7023 3.85323C41.1929 3.85323 40.914 3.44082 40.914 2.82528C40.914 2.20974 41.1929 1.79117 41.7023 1.79117C42.2056 1.79117 42.4906 2.20974 42.4906 2.82528C42.4906 3.44082 42.2056 3.85323 41.7023 3.85323ZM34.9935 4.4934C35.9577 4.4934 36.6187 3.76706 36.6187 2.82528C36.6187 1.8835 35.9577 1.15716 34.9935 1.15716C34.0293 1.15716 33.3684 1.8835 33.3684 2.82528C33.3684 3.76706 34.0293 4.4934 34.9935 4.4934ZM34.9935 3.85323C34.4841 3.85323 34.2052 3.44082 34.2052 2.82528C34.2052 2.20974 34.4841 1.79117 34.9935 1.79117C35.4968 1.79117 35.7818 2.20974 35.7818 2.82528C35.7818 3.44082 35.4968 3.85323 34.9935 3.85323Z" fill="#6C798B"/>
<path d="M30.9367 24.3324H32.3402V21.401H35.3505V20.1729H32.3402V18.4696H35.8926V17.2515H30.9367V24.3324ZM40.8845 24.4809C42.2106 24.4809 43.0334 23.6193 43.1205 22.5398H41.8524C41.7653 23.1142 41.3878 23.4014 40.8554 23.4014C40.0521 23.4014 39.6745 22.7576 39.6745 21.797C39.6745 20.8166 40.0811 20.1927 40.8748 20.1927C41.3588 20.1927 41.6976 20.5294 41.7847 20.9751H43.072C42.8978 19.8758 42.1041 19.1132 40.8168 19.1132C39.3068 19.1132 38.3388 20.2818 38.3388 21.797C38.3388 23.3122 39.3165 24.4809 40.8845 24.4809ZM46.7472 18.4597H48.0636V17.2515H46.7472V18.4597ZM46.7472 24.3324H48.0636V19.252H46.7472V24.3324ZM55.5961 19.2519H54.3087V24.3323H55.6251V21.4504C55.6251 20.7572 56.051 20.2818 56.6318 20.2818C57.1835 20.2818 57.4933 20.6681 57.4933 21.2127V24.3323H58.8097V21.0146C58.8097 19.9055 58.1224 19.1132 57.0964 19.1132C56.4188 19.1132 55.9638 19.4004 55.6251 19.9451H55.5961V19.2519ZM64.5364 24.3324H65.8529V17.2515H64.5364V24.3324ZM75.7676 24.4809C77.3067 24.4809 78.3621 23.3122 78.3621 21.797C78.3621 20.2818 77.3067 19.1132 75.7676 19.1132C74.2285 19.1132 73.1736 20.2818 73.1736 21.797C73.1736 23.3122 74.2285 24.4809 75.7676 24.4809ZM75.7676 23.4509C74.9549 23.4509 74.5093 22.7873 74.5093 21.797C74.5093 20.8067 74.9549 20.1333 75.7676 20.1333C76.5713 20.1333 77.0259 20.8067 77.0259 21.797C77.0259 22.7873 76.5713 23.4509 75.7676 23.4509ZM86.5811 24.4809C88.1202 24.4809 89.1751 23.3122 89.1751 21.797C89.1751 20.2818 88.1202 19.1132 86.5811 19.1132C85.042 19.1132 83.9866 20.2818 83.9866 21.797C83.9866 23.3122 85.042 24.4809 86.5811 24.4809ZM86.5811 23.4509C85.7679 23.4509 85.3228 22.7873 85.3228 21.797C85.3228 20.8067 85.7679 20.1333 86.5811 20.1333C87.3843 20.1333 87.8394 20.8067 87.8394 21.797C87.8394 22.7873 87.3843 23.4509 86.5811 23.4509ZM30.9367 14.3338H33.5213C34.3925 14.3338 35.0605 14.0901 35.5735 13.6611C36.2995 13.0469 36.6771 12.0524 36.6771 10.9215C36.6771 8.86429 35.4864 7.36288 33.6375 7.36288H30.9367V14.3338ZM32.3403 13.1151V8.57181H33.4632C34.6539 8.57181 35.254 9.53702 35.254 10.9215C35.254 12.3059 34.741 13.1151 33.4245 13.1151H32.3403ZM42.4383 15.9718H43.7547V13.7684H43.7741C44.0548 14.1973 44.5098 14.4801 45.2068 14.4801C46.4845 14.4801 47.3558 13.4563 47.3558 11.8379C47.3558 10.278 46.5136 9.19578 45.1971 9.19578C44.5195 9.19578 44.0548 9.51754 43.7354 9.95629H43.7064V9.33231H42.4383V15.9718ZM44.926 13.3784C44.142 13.3784 43.7257 12.7837 43.7257 11.877C43.7257 10.98 44.0548 10.2682 44.8776 10.2682C45.6908 10.2682 46.0199 10.9312 46.0199 11.877C46.0199 12.8226 45.594 13.3784 44.926 13.3784ZM54.1327 9.33231H52.8646V14.3338H54.1811V11.8964C54.1811 10.8435 54.8006 10.3852 55.6622 10.473H55.6912V9.31277C55.6137 9.28356 55.5266 9.27382 55.3814 9.27382C54.8006 9.27382 54.4618 9.5663 54.1617 10.1318H54.1327V9.33231ZM59.3584 14.3338H60.6746V11.4285C60.6746 10.7655 61.0328 10.3365 61.5652 10.3365C62.0495 10.3365 62.3303 10.629 62.3303 11.1945V14.3338H63.6469V11.4285C63.6469 10.7655 63.9854 10.3365 64.5375 10.3365C65.0212 10.3365 65.302 10.629 65.302 11.1945V14.3338H66.6186V10.9703C66.6186 9.87825 66.0279 9.19578 64.9826 9.19578C64.3531 9.19578 63.8308 9.52728 63.4916 10.0733H63.4726C63.2305 9.54682 62.7271 9.19578 62.0977 9.19578C61.4106 9.19578 60.9263 9.54682 60.6556 10.005H60.6264V9.33231H59.3584V14.3338ZM73.8233 9.33231H72.5359V14.3338H73.8519V11.4967C73.8519 10.8142 74.2778 10.3463 74.8591 10.3463C75.4106 10.3463 75.7206 10.7265 75.7206 11.2627V14.3338H77.0372V11.0677C77.0372 9.97577 76.3494 9.19578 75.3237 9.19578C74.6461 9.19578 74.191 9.47852 73.8519 10.0148H73.8233V9.33231ZM84.2591 14.4703C85.0724 14.4703 85.7143 14.1681 86.1855 13.5636C86.6567 12.9592 86.8917 12.2345 86.8917 11.3895C86.8917 10.7135 86.6954 10.174 86.3015 9.771C85.9077 9.36804 85.4044 9.16657 84.7916 9.16657C83.9973 9.16657 83.359 9.47201 82.8747 10.083C82.3904 10.6875 82.1489 11.4155 82.1489 12.2669C82.1489 12.9559 82.3452 13.4954 82.739 13.8854C83.1394 14.2753 83.6457 14.4703 84.2591 14.4703ZM82.9229 12.2572C82.9229 11.5877 83.0847 11.0125 83.4072 10.5315C83.7361 10.0505 84.1913 9.81002 84.7719 9.81002C85.211 9.81002 85.543 9.95951 85.769 10.2585C85.9951 10.5575 86.1076 10.9345 86.1076 11.3895C86.1076 12.0719 85.9463 12.6471 85.6239 13.1151C85.3008 13.5831 84.8558 13.8171 84.2877 13.8171C83.8492 13.8171 83.5101 13.6741 83.2715 13.3881C83.0395 13.0956 82.9229 12.7187 82.9229 12.2572ZM87.417 9.92707H88.0947L87.2808 14.1865L87.2528 14.3339H88.0173L88.8312 10.0744L88.8597 9.92707H89.7795L89.905 9.29336H88.9853L89.1304 8.52317C89.1691 8.32815 89.234 8.18839 89.3244 8.1039C89.4148 8.01942 89.579 7.97717 89.8182 7.97717C89.9276 7.97717 90.0276 7.9804 90.118 7.98691L90.2442 7.32392C90.102 7.31096 89.9598 7.30444 89.8182 7.30444C89.3922 7.30444 89.0662 7.39544 88.8401 7.57744C88.6146 7.75944 88.4594 8.06166 88.3755 8.48416L88.2208 9.29336H87.5431L87.417 9.92707ZM77.3828 10.2097H78.07V13.1444C78.07 14.0901 78.7767 14.3436 79.4157 14.3436C79.9381 14.3436 80.2385 14.3241 80.2385 14.3241V13.3492C80.2385 13.3492 80.016 13.3589 79.8512 13.3589C79.5609 13.3589 79.3574 13.2322 79.3574 12.8617V10.2097H80.2094V9.33231H79.3574V7.77235H78.07V9.33231H77.3828V10.2097ZM69.6837 14.4801C70.9617 14.4801 71.7458 13.7293 71.9296 12.8422H70.6327C70.4875 13.2224 70.1871 13.4563 69.6742 13.4563C68.9288 13.4563 68.5028 12.9786 68.4058 12.2085H72.007C72.007 10.4243 71.155 9.19578 69.5576 9.19578C68.106 9.19578 67.1089 10.3463 67.1089 11.8282C67.1089 13.3199 68.0381 14.4801 69.6837 14.4801ZM69.5772 10.2195C70.1775 10.2195 70.594 10.6582 70.6327 11.2919H68.4254C68.5415 10.6388 68.88 10.2195 69.5772 10.2195ZM55.9345 10.2097H56.6218V13.1444C56.6218 14.0901 57.3285 14.3436 57.9674 14.3436C58.4901 14.3436 58.7902 14.3241 58.7902 14.3241V13.3492C58.7902 13.3492 58.5675 13.3589 58.403 13.3589C58.1126 13.3589 57.9093 13.2322 57.9093 12.8617V10.2097H58.7611V9.33231H57.9093V7.77235H56.6218V9.33231H55.9345V10.2097ZM51.0145 14.3338H52.2826V14.2851C52.1664 14.1974 52.1083 13.9731 52.1083 13.5929V11.0482C52.1083 9.87831 51.5081 9.20558 50.0174 9.20558C48.5653 9.20558 47.9168 9.97583 47.8781 10.8533H49.0494C49.0881 10.3756 49.3882 10.1513 50.0077 10.1513C50.5595 10.1513 50.8402 10.3853 50.8402 10.746C50.8402 11.1263 50.4626 11.1945 49.6399 11.3115C48.5363 11.4675 47.6457 11.8185 47.6457 12.9202C47.6457 13.9146 48.3621 14.4508 49.3785 14.4508C50.2303 14.4508 50.5885 14.1584 50.8402 13.7782H50.8596C50.8886 14.0024 50.937 14.2364 51.0145 14.3338ZM49.6979 13.5246C49.2333 13.5246 48.9235 13.3589 48.9235 12.8909C48.9235 12.423 49.2624 12.267 49.9496 12.1109C50.2788 12.033 50.6369 11.9549 50.8692 11.8185V12.5692C50.8692 13.0567 50.453 13.5246 49.6979 13.5246ZM39.5864 14.4801C40.8641 14.4801 41.6482 13.7293 41.8321 12.8422H40.535C40.3898 13.2224 40.0897 13.4563 39.5767 13.4563C38.8313 13.4563 38.4054 12.9786 38.3086 12.2085H41.9096C41.9096 10.4243 41.0577 9.19578 39.4605 9.19578C38.0085 9.19578 37.0114 10.3463 37.0114 11.8282C37.0114 13.3199 37.9407 14.4801 39.5864 14.4801ZM39.4799 10.2195C40.0801 10.2195 40.4963 10.6582 40.535 11.2919H38.3279C38.4441 10.6388 38.7829 10.2195 39.4799 10.2195ZM91.7196 24.4809C92.9589 24.4809 93.8102 23.8668 93.8102 22.8468C93.8102 21.6584 92.891 21.4207 92.0587 21.2424C91.3519 21.0939 90.6933 21.0543 90.6933 20.6185C90.6933 20.2521 91.0324 20.0541 91.5453 20.0541C92.1069 20.0541 92.4454 20.2521 92.5037 20.7968H93.6942C93.5972 19.7767 92.8714 19.1132 91.5649 19.1132C90.4322 19.1132 89.5415 19.6381 89.5415 20.7374C89.5415 21.8465 90.4131 22.0941 91.3031 22.2724C91.9808 22.4111 92.6102 22.4605 92.6102 22.9458C92.6102 23.3024 92.2812 23.5301 91.7006 23.5301C91.1098 23.5301 90.7034 23.2726 90.616 22.6883H89.3964C89.4737 23.7678 90.2775 24.4809 91.7196 24.4809ZM81.0809 26.0654C81.8163 26.0654 82.4552 25.8871 82.8717 25.491C83.2394 25.1443 83.4619 24.6591 83.4619 23.9461V19.2519H82.1941V19.7867H82.1744C81.8746 19.3608 81.4195 19.1132 80.8001 19.1132C79.5418 19.1132 78.6512 20.0838 78.6512 21.599C78.6512 23.134 79.7352 24.0253 80.8388 24.0253C81.4677 24.0253 81.8454 23.7678 82.1358 23.4311H82.1649V23.9857C82.1649 24.6789 81.8068 25.0453 81.0613 25.0453C80.4515 25.0453 80.1707 24.7977 80.0642 24.4809H78.7577C78.8934 25.4711 79.7257 26.0654 81.0809 26.0654ZM81.0613 22.9458C80.3837 22.9458 79.9387 22.4408 79.9387 21.5791C79.9387 20.7275 80.3837 20.1927 81.0518 20.1927C81.8454 20.1927 82.2327 20.8265 82.2327 21.5692C82.2327 22.3219 81.8936 22.9458 81.0613 22.9458ZM68.2904 24.3324H72.9464V23.1341H69.6939V17.2515H68.2904V24.3324ZM62.6671 24.3323H63.9349V24.2828C63.8189 24.1936 63.7606 23.9658 63.7606 23.5796V20.9949C63.7606 19.8064 63.1609 19.1231 61.6699 19.1231C60.2183 19.1231 59.5692 19.9055 59.5306 20.7968H60.702C60.7407 20.3115 61.0405 20.0838 61.6604 20.0838C62.2119 20.0838 62.4927 20.3215 62.4927 20.6878C62.4927 21.0741 62.115 21.1434 61.2922 21.2623C60.1891 21.4207 59.2985 21.7772 59.2985 22.8963C59.2985 23.9064 60.0148 24.4512 61.031 24.4512C61.8829 24.4512 62.2411 24.1541 62.4927 23.7678H62.5118C62.5409 23.9955 62.5897 24.2332 62.6671 24.3323ZM61.3505 23.5103C60.8858 23.5103 60.5759 23.3419 60.5759 22.8666C60.5759 22.3912 60.915 22.2328 61.6021 22.0743C61.9311 21.9951 62.2893 21.9159 62.5219 21.7772V22.5398C62.5219 23.035 62.1054 23.5103 61.3505 23.5103ZM51.1834 24.4809C52.7224 24.4809 53.7775 23.3122 53.7775 21.797C53.7775 20.2818 52.7224 19.1132 51.1834 19.1132C49.6443 19.1132 48.5893 20.2818 48.5893 21.797C48.5893 23.3122 49.6443 24.4809 51.1834 24.4809ZM51.1834 23.4509C50.3703 23.4509 49.925 22.7873 49.925 21.797C49.925 20.8067 50.3703 20.1333 51.1834 20.1333C51.9868 20.1333 52.4417 20.8067 52.4417 21.797C52.4417 22.7873 51.9868 23.4509 51.1834 23.4509ZM43.3236 20.1432H44.0108V23.1241C44.0108 24.0847 44.7174 24.3422 45.3563 24.3422C45.879 24.3422 46.179 24.3224 46.179 24.3224V23.3321C46.179 23.3321 45.9564 23.342 45.7919 23.342C45.5015 23.342 45.2982 23.2132 45.2982 22.8369V20.1432H46.15V19.2519H45.2982V17.6674H44.0108V19.2519H43.3236V20.1432ZM36.4968 24.3324H37.8132V19.252H36.4968V24.3324ZM36.4968 18.4597H37.8132V17.2515H36.4968V18.4597Z" fill="#212F43"/>
<path d="M8.92405 17.671V21.9318H2.37975V0.0187988H0V24.3666H8.92405V27.4101H16.3608C20.468 27.4101 23.7975 24.0036 23.7975 19.8014C23.7975 18.28 23.3594 16.8638 22.6076 15.6749V6.10575H13.0886V8.54053H20.8228V12.1927H13.0886V17.671H15.4684V14.6275H16.3608C19.1536 14.6275 21.4177 16.9439 21.4177 19.8014C21.4177 22.6589 19.1536 24.9753 16.3608 24.9753H11.3038V20.1058H13.0886V17.671H8.92405V2.45358H22.6076V0.0187988H6.5443V17.671H8.92405Z" fill="#1E79F8"/>
</g>
<defs>
<clipPath id="clip0_15_275">
<rect width="94" height="28" fill="white"/>
</clipPath>
</defs>
</svg>
