<svg width="121" height="16" viewBox="0 0 121 16" fill="none" xmlns="http://www.w3.org/2000/svg">
<g clip-path="url(#clip0_15_236)">
<path d="M18.4504 0C21.531 2.57711e-07 24.0284 2.32812 24.0284 5.2C24.0284 8.07188 21.531 10.4 18.4504 10.4H14.7965L20.8036 16H13.5227L6.76133 9.69688C6.29543 9.26256 6.00709 8.66276 6.00709 8C6.00709 6.67452 7.15972 5.6 8.58156 5.6H18.4504C18.6873 5.6 18.8794 5.42092 18.8794 5.2C18.8794 4.97908 18.6873 4.8 18.4504 4.8H8.58156C6.68576 4.8 5.14894 6.23268 5.14894 8C5.14894 8.95604 5.5987 9.81388 6.31174 10.4H6.30208L12.3092 16H8.58156C3.8421 16 0 12.4183 0 8C0 3.58172 3.84209 0 8.58156 0H18.4504Z" fill="#3902FF"/>
<path d="M24.0283 11.2V16H22.017L16.8681 11.2H24.0283Z" fill="#3902FF"/>
<path d="M116.981 3.32178L117.045 3.34206C117.879 3.36235 118.606 3.91001 118.819 4.66052L118.841 4.74164L121 13.0581H118.136L116.853 8.1088L115.848 11.1311C115.549 11.9628 114.736 12.551 113.796 12.551C112.898 12.551 112.086 12.0033 111.786 11.2122L111.744 11.1311L110.739 8.1088L109.456 13.0581H106.613L108.751 4.74164L108.772 4.66052C109.007 3.86945 109.756 3.32178 110.632 3.32178L110.696 3.34206C111.487 3.36235 112.171 3.84916 112.449 4.5388L112.47 4.59968L113.796 8.55504L115.121 4.59968L115.143 4.5388C115.421 3.80859 116.147 3.32178 116.981 3.32178Z" fill="#130058"/>
<path d="M101.36 13.0581C98.5167 13.0581 96.2293 10.8877 96.2293 8.18992V3.32178H98.987V8.18992C98.987 9.42724 100.056 10.4414 101.36 10.4414C102.642 10.4414 103.711 9.42724 103.711 8.18992V3.32178H106.49V8.18992C106.49 10.8877 104.182 13.0581 101.36 13.0581Z" fill="#130058"/>
<path d="M95.7268 3.32178V5.95868C94.5297 5.95868 93.4823 6.7092 93.1404 7.80452L92.6486 9.34612C91.9643 11.5571 89.8266 13.0581 87.4109 13.0581V10.4414C88.587 10.4414 89.6558 9.69096 89.9978 8.5956L90.4681 7.05404C91.152 4.84308 93.2897 3.32178 95.7268 3.32178Z" fill="#130058"/>
<path d="M84.6412 7.54084C85.0905 7.54084 85.4749 7.19604 85.4749 6.74976C85.4749 6.3238 85.0905 5.95868 84.6412 5.95868H81.5845V7.54084H84.6412ZM84.6412 3.32178C86.6296 3.32178 88.2541 4.86336 88.2541 6.74976C88.2541 8.6362 86.6296 10.1778 84.6412 10.1778H81.5845V13.0581H78.8268V5.695C78.8268 4.39684 79.9385 3.32178 81.3064 3.32178H84.6412Z" fill="#130058"/>
<path d="M74.718 3.32178H77.4756V13.0581H74.718V3.32178Z" fill="#130058"/>
<path d="M68.4993 5.83687H67.9437C66.5539 5.83687 65.4421 6.89163 65.4421 8.18979C65.4421 9.50827 66.5539 10.563 67.9437 10.563H68.4993C69.8887 10.563 71.0004 9.50827 71.0004 8.18979C71.0004 6.89163 69.8887 5.83687 68.4993 5.83687ZM67.9437 3.19995H68.4993C71.4067 3.19995 73.7581 5.43119 73.7581 8.18979C73.7581 10.9687 71.4067 13.2 68.4993 13.2H67.9437C65.0362 13.2 62.6844 10.9687 62.6844 8.18979C62.6844 5.43119 65.0362 3.19995 67.9437 3.19995Z" fill="#130058"/>
<path d="M61.513 5.95868H56.126C54.822 5.95868 53.7532 6.97288 53.7532 8.18992C53.7532 9.42724 54.822 10.4414 56.126 10.4414H58.7983C59.0763 10.4009 59.3114 10.1778 59.3114 9.8938V9.6504H55.143V7.01348H59.7817C61.0642 7.01348 62.0691 7.98708 62.0691 9.18384V9.8938C62.0691 11.6179 60.6369 13.0175 58.8197 13.0581H56.126C53.2829 13.0581 50.9955 10.8877 50.9955 8.18992C50.9955 5.51244 53.2829 3.32178 56.126 3.32178H61.513V5.95868Z" fill="#130058"/>
<path d="M45.2475 5.83687H44.6915C43.3021 5.83687 42.1904 6.89163 42.1904 8.18979C42.1904 9.50827 43.3021 10.563 44.6915 10.563H45.2475C46.6369 10.563 47.7486 9.50827 47.7486 8.18979C47.7486 6.89163 46.6369 5.83687 45.2475 5.83687ZM44.6915 3.19995H45.2475C48.1545 3.19995 50.5063 5.43119 50.5063 8.18979C50.5063 10.9687 48.1545 13.2 45.2475 13.2H44.6915C41.7842 13.2 39.4327 10.9687 39.4327 8.18979C39.4327 5.43119 41.7842 3.19995 44.6915 3.19995Z" fill="#130058"/>
<path d="M30.4645 9.123V3.32178H33.2222V9.123C33.2222 9.85324 33.8422 10.4414 34.6117 10.4414H38.7804V13.0581H34.6117C32.3244 13.0581 30.4645 11.2934 30.4645 9.123Z" fill="#130058"/>
</g>
<defs>
<clipPath id="clip0_15_236">
<rect width="121" height="16" fill="white"/>
</clipPath>
</defs>
</svg>
