<svg width="182" height="42" viewBox="0 0 182 42" fill="none" xmlns="http://www.w3.org/2000/svg">
<g clip-path="url(#clip0_7_2)">
<path d="M52.1927 2.89222L45.2063 14.9305C44.8876 15.4838 44.2921 15.8024 43.6295 15.8108L17.2772 15.9617C15.4908 15.9701 13.7882 16.6323 12.874 18.2503C12.0689 19.6671 11.4314 21.1593 10.7185 22.6515C10.4334 23.2551 10.3747 23.9928 10.5172 24.6383C10.8276 26.0132 12.7566 26.6671 13.8721 26.6671H21.9321C22.645 26.6671 23.3579 26.1808 23.6682 25.5856L24.6243 23.7413C24.943 23.1293 25.5469 22.7605 26.3269 22.7689L37.8172 22.8527C38.5385 22.8527 39.0837 23.3222 39.3269 23.8503C39.6456 24.521 39.4863 25.1246 39.1089 25.7281L36.2321 30.3976L30.1598 40.8683C29.8579 41.3964 29.3882 42.0168 28.6837 42.0168H15.7676C14.585 42.0084 13.4108 41.388 12.5805 40.5581L1.48434 29.4168C-0.134373 27.7988 -0.469857 25.2671 0.679175 23.2886L7.89208 10.8311C8.26111 10.194 8.80627 9.84192 9.5024 9.82515C10.1482 9.80838 10.794 10.1186 11.1379 10.7389C11.7082 11.7617 12.6895 12.4743 13.7714 12.5749C14.9121 12.6754 16.2624 12.3569 16.8747 11.3006L22.7624 1.13174C23.1147 0.511377 23.6347 0 24.4147 0H50.5321C51.2869 0 51.8656 0.318563 52.2011 0.82994C52.6289 1.49222 52.5701 2.22994 52.2011 2.88383L52.1927 2.89222Z" fill="url(#paint0_linear_7_2)"/>
<path d="M66.6774 11.6695C68.1284 12.4407 69.009 13.7904 69.3361 15.7186H67.3568C67.1219 14.6371 66.6355 13.8575 65.889 13.3629C65.1426 12.8683 64.2116 12.6252 63.0794 12.6252C61.7374 12.6252 60.6136 13.1365 59.6994 14.1593C58.7852 15.182 58.3239 16.7078 58.3239 18.7449C58.3239 20.497 58.7013 21.9305 59.4561 23.0287C60.211 24.1269 61.4439 24.6802 63.1548 24.6802C64.4632 24.6802 65.5452 24.2946 66.4006 23.5234C67.2561 22.7521 67.6923 21.4946 67.7174 19.7677H63.0961V18.1078H69.5794V26.0048H68.2961L67.8097 24.1018C67.1471 24.8479 66.5516 25.3593 66.04 25.6527C65.1761 26.1473 64.0774 26.3988 62.7439 26.3988C61.0245 26.3988 59.54 25.8371 58.3071 24.697C56.9568 23.2802 56.2774 21.3269 56.2774 18.8455C56.2774 16.3641 56.94 14.4108 58.2568 12.9437C59.5148 11.5521 61.1335 10.8563 63.1297 10.8563C64.4968 10.8563 65.6794 11.1246 66.6774 11.6611V11.6695Z" fill="#333333"/>
<path d="M83.6026 11.2503V13.0108H78.629V26.0132H76.6077V13.0108H71.6342V11.2503H83.611H83.6026Z" fill="#333333"/>
<path d="M85.6323 11.2503H96.351V13.0611H87.5865V17.5461H95.6884V19.2563H87.5865V24.2611H96.5019V26.0216H85.6323V11.2503Z" fill="#333333"/>
<path d="M109.619 12.3234C110.643 13.3042 111.205 14.4275 111.322 15.6766H109.368C109.15 14.7293 108.722 13.9749 108.068 13.4132C107.422 12.8599 106.508 12.5749 105.342 12.5749C103.916 12.5749 102.759 13.0862 101.878 14.109C100.997 15.1317 100.561 16.6994 100.561 18.812C100.561 20.5389 100.955 21.9473 101.752 23.0204C102.549 24.0934 103.732 24.6383 105.3 24.6383C106.751 24.6383 107.85 24.0766 108.605 22.9365C109.007 22.3413 109.309 21.5533 109.502 20.5808H111.456C111.28 22.1317 110.718 23.4395 109.745 24.4874C108.588 25.7533 107.019 26.3904 105.057 26.3904C103.363 26.3904 101.937 25.8707 100.779 24.8311C99.2613 23.4563 98.5065 21.3353 98.5065 18.4683C98.5065 16.2886 99.0768 14.503 100.217 13.1114C101.45 11.594 103.145 10.8395 105.317 10.8395C107.162 10.8395 108.596 11.3341 109.619 12.315V12.3234Z" fill="#333333"/>
<path d="M114.09 11.2503H116.111V17.3533H123.701V11.2503H125.723V26.0132H123.701V19.1138H116.111V26.0132H114.09V11.2503Z" fill="#333333"/>
<path d="M134.286 23.8754C135.015 23.8754 135.611 23.7916 136.064 23.6323C136.928 23.3222 137.364 22.7521 137.364 21.9138C137.364 21.4275 137.146 21.0503 136.718 20.782C136.29 20.5222 135.619 20.2874 134.697 20.0862L133.128 19.7341C131.585 19.382 130.52 19.0048 129.933 18.6024C128.935 17.915 128.432 16.8503 128.432 15.4C128.432 14.0754 128.918 12.9689 129.883 12.097C130.847 11.2251 132.265 10.7808 134.135 10.7808C135.695 10.7808 137.028 11.1916 138.127 12.0216C139.226 12.8515 139.805 14.0503 139.863 15.6263H136.886C136.835 14.7377 136.441 14.1006 135.72 13.7234C135.234 13.4719 134.638 13.3545 133.917 13.3545C133.12 13.3545 132.483 13.5138 132.005 13.8407C131.526 14.1677 131.292 14.612 131.292 15.1904C131.292 15.7186 131.526 16.1126 131.996 16.3725C132.298 16.5485 132.944 16.7497 133.925 16.9844L136.475 17.5964C137.59 17.8647 138.437 18.2252 139.008 18.6695C139.888 19.3653 140.333 20.3713 140.333 21.6958C140.333 23.0204 139.813 24.1772 138.781 25.0659C137.75 25.9629 136.282 26.4072 134.395 26.4072C132.508 26.4072 130.948 25.9629 129.841 25.0826C128.734 24.2024 128.18 22.9868 128.18 21.4527H131.132C131.225 22.1317 131.409 22.6347 131.686 22.9701C132.189 23.582 133.053 23.8838 134.269 23.8838L134.286 23.8754Z" fill="#333333"/>
<path d="M149.198 26.424C147.076 26.424 145.457 25.8455 144.342 24.697C142.841 23.2802 142.086 21.2431 142.086 18.5856C142.086 15.9281 142.841 13.8323 144.342 12.4743C145.457 11.3258 147.076 10.7473 149.198 10.7473C151.32 10.7473 152.93 11.3258 154.054 12.4743C155.547 13.8323 156.294 15.8695 156.294 18.5856C156.294 21.3018 155.547 23.2802 154.054 24.697C152.939 25.8455 151.32 26.424 149.198 26.424ZM152.125 22.4419C152.838 21.5365 153.199 20.2539 153.199 18.5856C153.199 16.9174 152.838 15.6431 152.117 14.7293C151.395 13.824 150.423 13.3713 149.198 13.3713C147.974 13.3713 146.992 13.824 146.263 14.7293C145.533 15.6347 145.164 16.9174 145.164 18.5856C145.164 20.2539 145.533 21.5365 146.263 22.4419C146.992 23.3473 147.974 23.8 149.198 23.8C150.423 23.8 151.395 23.3473 152.125 22.4419Z" fill="#333333"/>
<path d="M169.168 13.824H161.737V17.2275H168.245V19.8012H161.737V26.0132H158.659V11.2168H169.168V13.8156V13.824Z" fill="#333333"/>
<path d="M182 11.2V13.824H177.563V26.0132H174.443V13.824H169.99V11.2H181.992H182Z" fill="#333333"/>
<path d="M84.2148 34.1617C84.2316 34.4719 84.2987 34.715 84.4245 34.9078C84.6594 35.2683 85.0703 35.4443 85.6658 35.4443C85.9342 35.4443 86.169 35.4024 86.3871 35.3269C86.8064 35.176 87.0161 34.8994 87.0161 34.5054C87.0161 34.212 86.9239 34.0024 86.7477 33.8766C86.5632 33.7509 86.2864 33.6503 85.9006 33.5581L85.1877 33.3904C84.7264 33.2814 84.391 33.1641 84.1981 33.0299C83.8626 32.8036 83.6948 32.4683 83.6948 32.0156C83.6948 31.5293 83.8626 31.1269 84.1897 30.8168C84.5168 30.5066 84.9781 30.3473 85.5819 30.3473C86.1355 30.3473 86.6052 30.4814 86.991 30.7581C87.3768 31.0347 87.5697 31.4707 87.5697 32.0742H86.8819C86.8484 31.7808 86.7729 31.5629 86.6555 31.4036C86.4374 31.1186 86.0768 30.976 85.5652 30.976C85.1458 30.976 84.8523 31.0683 84.6677 31.2527C84.4832 31.4371 84.3993 31.6467 84.3993 31.8898C84.3993 32.1581 84.5084 32.3509 84.7181 32.4683C84.8606 32.5437 85.1794 32.6443 85.6742 32.7617L86.4123 32.9377C86.7645 33.0216 87.0413 33.1389 87.2342 33.2814C87.5697 33.5329 87.7374 33.9018 87.7374 34.388C87.7374 34.9916 87.5277 35.4192 87.1 35.679C86.6723 35.9389 86.1774 36.0647 85.6155 36.0647C84.9613 36.0647 84.4413 35.8886 84.0723 35.5449C83.7032 35.2012 83.5187 34.7401 83.5271 34.1533H84.2148V34.1617Z" fill="#333333"/>
<path d="M94.6065 31.2695C94.9671 31.7473 95.1432 32.3593 95.1432 33.1138C95.1432 33.9269 94.9336 34.5976 94.531 35.1341C94.0529 35.7629 93.3652 36.0814 92.4677 36.0814C91.6374 36.0814 90.9748 35.8048 90.4968 35.2515C90.069 34.7233 89.8594 34.0527 89.8594 33.2395C89.8594 32.5102 90.0439 31.8814 90.4045 31.3617C90.8742 30.691 91.5619 30.3557 92.4761 30.3557C93.3903 30.3557 94.1452 30.6659 94.5981 31.2778L94.6065 31.2695ZM93.9606 34.7233C94.2458 34.2623 94.3968 33.7257 94.3968 33.1221C94.3968 32.485 94.229 31.9736 93.8936 31.5796C93.5581 31.1856 93.1052 30.9928 92.5265 30.9928C91.9477 30.9928 91.5116 31.1856 91.151 31.5713C90.7903 31.9569 90.6226 32.5269 90.6226 33.273C90.6226 33.8766 90.7736 34.3796 91.0755 34.7904C91.3774 35.2012 91.8723 35.4108 92.5516 35.4108C93.231 35.4108 93.6671 35.176 93.9523 34.715L93.9606 34.7233Z" fill="#333333"/>
<path d="M97.3826 30.4898H98.1206V35.2599H100.838V35.9054H97.3826V30.4898Z" fill="#333333"/>
<path d="M103.732 30.4898V33.8431C103.732 34.2371 103.807 34.5641 103.958 34.8239C104.176 35.218 104.554 35.4108 105.074 35.4108C105.703 35.4108 106.13 35.2012 106.357 34.7736C106.474 34.5389 106.541 34.2287 106.541 33.8431V30.4898H107.279V33.5329C107.279 34.1952 107.187 34.715 107.011 35.0671C106.684 35.721 106.055 36.0479 105.141 36.0479C104.226 36.0479 103.597 35.721 103.27 35.0671C103.094 34.7066 103.002 34.1952 103.002 33.5329V30.4898H103.74H103.732Z" fill="#333333"/>
<path d="M113.704 30.4898V31.1353H111.875V35.9054H111.137V31.1353H109.309V30.4898H113.704Z" fill="#333333"/>
<path d="M115.901 30.4898H116.639V35.9054H115.901V30.4898Z" fill="#333333"/>
<path d="M123.659 31.2695C124.02 31.7473 124.196 32.3593 124.196 33.1138C124.196 33.9269 123.986 34.5976 123.584 35.1341C123.106 35.7629 122.418 36.0814 121.521 36.0814C120.69 36.0814 120.028 35.8048 119.55 35.2515C119.122 34.7233 118.912 34.0527 118.912 33.2395C118.912 32.5102 119.097 31.8814 119.457 31.3617C119.927 30.691 120.615 30.3557 121.529 30.3557C122.443 30.3557 123.198 30.6659 123.651 31.2778L123.659 31.2695ZM123.014 34.7233C123.299 34.2623 123.45 33.7257 123.45 33.1221C123.45 32.485 123.282 31.9736 122.946 31.5796C122.611 31.1856 122.158 30.9928 121.579 30.9928C121.001 30.9928 120.565 31.1856 120.204 31.5713C119.843 31.9569 119.675 32.5269 119.675 33.273C119.675 33.8766 119.826 34.3796 120.128 34.7904C120.43 35.2012 120.925 35.4108 121.605 35.4108C122.284 35.4108 122.72 35.176 123.005 34.715L123.014 34.7233Z" fill="#333333"/>
<path d="M126.435 30.4898H127.299L130 34.8659V30.4898H130.705V35.9054H129.883L127.14 31.5293V35.9054H126.435V30.4898Z" fill="#333333"/>
<path d="M136.718 30.4898H137.456V35.2599H140.174V35.9054H136.718V30.4898Z" fill="#333333"/>
<path d="M142.279 30.4898H143.017V35.2599H145.734V35.9054H142.279V30.4898Z" fill="#333333"/>
<path d="M151.681 30.8838C152.058 31.2443 152.259 31.6551 152.301 32.1162H151.588C151.513 31.7641 151.354 31.4874 151.11 31.2862C150.875 31.085 150.54 30.976 150.112 30.976C149.584 30.976 149.165 31.1605 148.846 31.5377C148.527 31.915 148.359 32.485 148.359 33.2647C148.359 33.9018 148.502 34.4132 148.795 34.8072C149.089 35.2012 149.525 35.4024 150.095 35.4024C150.624 35.4024 151.035 35.1928 151.312 34.782C151.463 34.5641 151.572 34.279 151.639 33.9186H152.352C152.285 34.4886 152.075 34.9665 151.723 35.3521C151.295 35.8132 150.725 36.0479 150.003 36.0479C149.383 36.0479 148.854 35.8551 148.435 35.4778C147.881 34.9748 147.596 34.1952 147.596 33.1389C147.596 32.3425 147.806 31.6802 148.225 31.1689C148.678 30.6156 149.299 30.3305 150.095 30.3305C150.775 30.3305 151.303 30.515 151.672 30.8754L151.681 30.8838Z" fill="#333333"/>
</g>
<defs>
<linearGradient id="paint0_linear_7_2" x1="-0.000179588" y1="21" x2="52.503" y2="21" gradientUnits="userSpaceOnUse">
<stop stop-color="#DF9500"/>
<stop offset="1" stop-color="#FF9C00"/>
</linearGradient>
<clipPath id="clip0_7_2">
<rect width="182" height="42" fill="white"/>
</clipPath>
</defs>
</svg>
