<svg width="114" height="22" viewBox="0 0 114 22" fill="none" xmlns="http://www.w3.org/2000/svg">
<g clip-path="url(#clip0_15_219)">
<path d="M10.5556 15.6396C8.72448 15.6396 7.02129 16.6191 6.04416 18.2332L4.83144 20.2364L5.29736 20.5431C5.44308 20.6306 5.59112 20.7142 5.74111 20.7945L6.9369 18.8203C7.7206 17.5256 9.0868 16.7404 10.5556 16.7403C12.0244 16.7403 13.3905 17.5256 14.1742 18.8203L15.3695 20.7945C15.5195 20.7143 15.6675 20.6306 15.8132 20.5431L16.2797 20.2364L15.0669 18.2332C14.0898 16.6191 12.3867 15.6396 10.5556 15.6396ZM10.6205 20.0435L10.5556 20.0408C10.2312 20.041 9.93484 20.2257 9.78036 20.519L9.75154 20.5791L9.16703 21.9087C9.53494 21.9591 9.90871 21.9902 10.2876 22L10.5556 21.3903L10.823 22C11.202 21.9902 11.576 21.9591 11.9441 21.9087L11.3601 20.5791L11.3312 20.519C11.1871 20.2453 10.9192 20.0663 10.6205 20.0435ZM11.0833 6.82346V0H10.0278V6.82346L8.33314 0.232607L7.31363 0.517322L9.00779 7.10765L5.73494 1.19903L4.82061 1.74912L8.09347 7.65721L3.46509 2.83318L2.71826 3.61158L7.34661 8.43563L1.67817 5.02441L1.15039 5.9774L6.81936 9.38861L0.496338 7.62284L0.223172 8.68544L6.54724 10.4517H0V11.5519H6.54724L0.223172 13.3182L0.496338 14.3808L6.81936 12.6145L1.15039 16.0262L1.67817 16.9792L7.34661 13.5675L2.71826 18.3921L3.46509 19.1705L6.92529 15.563C7.22211 15.2535 7.38889 14.8338 7.38889 14.3962V11.2393C7.38889 9.4165 8.80676 7.93881 10.5556 7.9387C12.3045 7.9387 13.7222 9.41644 13.7222 11.2393V14.3967C13.7222 14.8344 13.889 15.2541 14.1859 15.5636L17.646 19.1705L18.3928 18.3921L13.7645 13.568L19.4329 16.9792L19.9607 16.0262L14.2917 12.6145L20.6148 14.3808L20.8879 13.3182L14.5644 11.5519H21.1111V10.4517H14.5639L20.8879 8.68544L20.6148 7.62284L14.2917 9.38806L19.9607 5.9774L19.4329 5.02441L13.7634 8.43563L18.3928 3.61105L17.6465 2.83318L13.0172 7.65776L16.2905 1.74912L15.3762 1.19903L12.1028 7.10765L13.7975 0.517322L12.778 0.232607L11.0833 6.82346ZM10.5556 17.8405C9.50644 17.8406 8.53902 18.4312 8.02592 19.3849L6.96777 21.3511C7.30481 21.4781 7.64972 21.5876 8.00169 21.6787L8.94647 19.9232C9.27274 19.3165 9.88829 18.9407 10.5556 18.9407C11.2229 18.9407 11.8383 19.3164 12.1646 19.9232L13.1089 21.6787C13.4609 21.5876 13.8058 21.478 14.1428 21.3511L13.0852 19.3849C12.5721 18.4311 11.6047 17.8405 10.5556 17.8405Z" fill="#FF2121"/>
<path d="M110.145 7.54321C110.881 7.54321 111.537 7.7015 112.115 8.01808C112.704 8.33466 113.162 8.80365 113.491 9.42504C113.83 10.0465 114 10.7968 114 11.6762V17.3921H112.081V11.9752C112.081 11.1075 111.871 10.4451 111.452 9.98785C111.033 9.51887 110.462 9.28435 109.737 9.28435C109.013 9.28435 108.435 9.51887 108.005 9.98785C107.586 10.4451 107.376 11.1075 107.376 11.9752V17.3921H105.457V11.9752C105.457 11.1075 105.248 10.4451 104.829 9.98785C104.41 9.51887 103.838 9.28435 103.114 9.28435C102.389 9.28435 101.812 9.51887 101.381 9.98785C100.962 10.4451 100.753 11.1075 100.753 11.9752V17.3921H98.8169V7.7015H100.753V8.80948C101.07 8.41084 101.472 8.10014 101.959 7.87739C102.445 7.65459 102.966 7.54321 103.521 7.54321C104.268 7.54321 104.936 7.70739 105.525 8.03568C106.114 8.36398 106.567 8.83879 106.884 9.46024C107.167 8.87399 107.609 8.41084 108.209 8.07083C108.809 7.7191 109.454 7.54321 110.145 7.54321Z" fill="#540000"/>
<path d="M96.8567 7.70166V17.3922H94.9203V16.249C94.6147 16.6477 94.2131 16.9642 93.7149 17.1987C93.2277 17.4215 92.7068 17.5329 92.1521 17.5329C91.4164 17.5329 90.754 17.3746 90.165 17.058C89.5876 16.7415 89.129 16.2725 88.7896 15.651C88.4608 15.0296 88.2967 14.2793 88.2967 13.3999V7.70166H90.2162V13.1009C90.2162 13.9685 90.4258 14.6369 90.8443 15.1059C91.2633 15.5631 91.8349 15.7918 92.5596 15.7918C93.2842 15.7918 93.8563 15.5631 94.2754 15.1059C94.7055 14.6369 94.9203 13.9685 94.9203 13.1009V7.70166H96.8567Z" fill="#540000"/>
<path d="M83.3007 17.5504C82.5645 17.5504 81.9021 17.4155 81.3136 17.1458C80.7363 16.8644 80.2776 16.4892 79.9377 16.0203C79.5984 15.5396 79.4168 15.0061 79.3947 14.4198H81.3986C81.4324 14.8302 81.6192 15.1761 81.9591 15.4575C82.3101 15.7272 82.746 15.862 83.2664 15.862C83.81 15.862 84.2291 15.7565 84.5236 15.5454C84.8292 15.3226 84.9822 15.0413 84.9822 14.7012C84.9822 14.3377 84.8123 14.0681 84.4724 13.8922C84.1441 13.7164 83.6174 13.5229 82.8928 13.3118C82.1908 13.1125 81.6192 12.919 81.1775 12.7315C80.7363 12.5439 80.351 12.2566 80.0227 11.8697C79.7055 11.4828 79.5472 10.9727 79.5472 10.3396C79.5472 9.82368 79.6944 9.35469 79.9889 8.93262C80.2834 8.49878 80.702 8.15877 81.2456 7.91254C81.8003 7.66636 82.4346 7.54321 83.1477 7.54321C84.2122 7.54321 85.0667 7.82459 85.7121 8.38741C86.3692 8.93845 86.7202 9.6947 86.7651 10.6562H84.8292C84.7954 10.2223 84.6255 9.87648 84.3199 9.61853C84.0138 9.36058 83.6005 9.2316 83.0796 9.2316C82.5703 9.2316 82.1797 9.33126 81.9079 9.53058C81.6361 9.7299 81.5005 9.99368 81.5005 10.322C81.5005 10.5799 81.5907 10.7968 81.7723 10.9727C81.9533 11.1486 82.1739 11.2893 82.4347 11.3948C82.6948 11.4886 83.0796 11.6117 83.5894 11.7641C84.2687 11.9517 84.8234 12.1452 85.2535 12.3445C85.6953 12.5322 86.0747 12.8135 86.3914 13.1887C86.7086 13.5639 86.8727 14.0622 86.8843 14.6836C86.8843 15.2347 86.7371 15.7272 86.4426 16.1609C86.1481 16.5948 85.729 16.9348 85.186 17.181C84.6534 17.4272 84.0254 17.5504 83.3007 17.5504Z" fill="#540000"/>
<path d="M70.9238 9.12606C71.2526 8.68056 71.6997 8.30535 72.266 8.00048C72.8318 7.69567 73.4714 7.54321 74.185 7.54321C75.0004 7.54321 75.7419 7.75425 76.4096 8.17637C77.0893 8.58673 77.6213 9.16709 78.0061 9.91751C78.3914 10.6679 78.5835 11.5297 78.5835 12.5028C78.5835 13.476 78.3914 14.3495 78.0061 15.1233C77.6213 15.8854 77.0893 16.4834 76.4096 16.9172C75.7419 17.3393 75.0004 17.5504 74.185 17.5504C73.4714 17.5504 72.8376 17.4038 72.2829 17.1107C71.7282 16.8058 71.2753 16.4306 70.9238 15.9851V21.9999H68.9879V7.7015H70.9238V9.12606ZM76.6138 12.5028C76.6138 11.8345 76.4776 11.26 76.2058 10.7792C75.9456 10.2868 75.5947 9.91751 75.1529 9.67127C74.7228 9.41332 74.2583 9.28435 73.7601 9.28435C73.2735 9.28435 72.8091 9.41332 72.3678 9.67127C71.9377 9.92922 71.5862 10.3044 71.3149 10.7968C71.0542 11.2893 70.9238 11.8697 70.9238 12.538C70.9238 13.2063 71.0542 13.7925 71.3149 14.2967C71.5862 14.7891 71.9377 15.1643 72.3678 15.4223C72.8091 15.6802 73.2735 15.8092 73.7601 15.8092C74.2583 15.8092 74.7228 15.6802 75.1529 15.4223C75.5947 15.1526 75.9456 14.7657 76.2058 14.2615C76.4776 13.7574 76.6138 13.1711 76.6138 12.5028Z" fill="#540000"/>
<path d="M66.0894 6.41783C65.7384 6.41783 65.4439 6.29474 65.2064 6.0485C64.9684 5.80227 64.8496 5.49744 64.8496 5.13396C64.8496 4.7705 64.9684 4.46565 65.2064 4.21943C65.4439 3.97321 65.7384 3.8501 66.0894 3.8501C66.4293 3.8501 66.718 3.97321 66.9555 4.21943C67.1935 4.46565 67.3123 4.7705 67.3123 5.13396C67.3123 5.49744 67.1935 5.80227 66.9555 6.0485C66.718 6.29474 66.4293 6.41783 66.0894 6.41783ZM67.0404 7.70169V17.3923H65.1046V7.70169H67.0404Z" fill="#540000"/>
<path d="M58.9274 17.5504C58.0445 17.5504 57.2459 17.3451 56.5329 16.9348C55.8193 16.5127 55.2588 15.9265 54.8514 15.1761C54.444 14.414 54.2402 13.5346 54.2402 12.538C54.2402 11.5531 54.4492 10.6796 54.8683 9.91751C55.2873 9.15537 55.8589 8.56913 56.5836 8.15877C57.3082 7.74842 58.1178 7.54321 59.0124 7.54321C59.907 7.54321 60.7166 7.74842 61.4412 8.15877C62.1659 8.56913 62.7375 9.15537 63.1565 9.91751C63.5756 10.6796 63.7846 11.5531 63.7846 12.538C63.7846 13.5229 63.5698 14.3964 63.1396 15.1585C62.709 15.9206 62.1205 16.5127 61.3732 16.9348C60.6374 17.3451 59.822 17.5504 58.9274 17.5504ZM58.9274 15.8092C59.4256 15.8092 59.8901 15.6861 60.3202 15.4399C60.762 15.1937 61.1182 14.8243 61.39 14.3319C61.6618 13.8394 61.7975 13.2415 61.7975 12.538C61.7975 11.8345 61.6676 11.2424 61.4069 10.7617C61.1467 10.2692 60.8016 9.89991 60.3709 9.65367C59.9408 9.40749 59.4768 9.28435 58.9786 9.28435C58.4804 9.28435 58.016 9.40749 57.5858 9.65367C57.1668 9.89991 56.8327 10.2692 56.5836 10.7617C56.3345 11.2424 56.2099 11.8345 56.2099 12.538C56.2099 13.5815 56.4648 14.3905 56.9747 14.965C57.495 15.5278 58.1463 15.8092 58.9274 15.8092Z" fill="#540000"/>
<path d="M48.6915 17.5504C47.8084 17.5504 47.0102 17.3451 46.2969 16.9348C45.5835 16.5127 45.0231 15.9265 44.6155 15.1761C44.2079 14.414 44.0041 13.5346 44.0041 12.538C44.0041 11.5531 44.2135 10.6796 44.6325 9.91751C45.0514 9.15537 45.6232 8.56913 46.3478 8.15877C47.0724 7.74842 47.882 7.54321 48.7765 7.54321C49.6709 7.54321 50.4805 7.74842 51.2051 8.15877C51.9297 8.56913 52.5015 9.15537 52.9203 9.91751C53.3393 10.6796 53.5488 11.5531 53.5488 12.538C53.5488 13.5229 53.3335 14.3964 52.9034 15.1585C52.4732 15.9206 51.8844 16.5127 51.1372 16.9348C50.4012 17.3451 49.586 17.5504 48.6915 17.5504ZM48.6915 15.8092C49.1897 15.8092 49.654 15.6861 50.0842 15.4399C50.5258 15.1937 50.8824 14.8243 51.1542 14.3319C51.4259 13.8394 51.5618 13.2415 51.5618 12.538C51.5618 11.8345 51.4316 11.2424 51.1712 10.7617C50.9107 10.2692 50.5654 9.89991 50.1351 9.65367C49.7049 9.40749 49.2407 9.28435 48.7425 9.28435C48.2443 9.28435 47.7801 9.40749 47.3498 9.65367C46.9309 9.89991 46.5969 10.2692 46.3478 10.7617C46.0987 11.2424 45.9742 11.8345 45.9742 12.538C45.9742 13.5815 46.2289 14.3905 46.7384 14.965C47.2593 15.5278 47.9103 15.8092 48.6915 15.8092Z" fill="#540000"/>
<path d="M38.4556 17.5504C37.5725 17.5504 36.7742 17.3451 36.0609 16.9348C35.3476 16.5127 34.7871 15.9265 34.3795 15.1761C33.9719 14.414 33.7681 13.5346 33.7681 12.538C33.7681 11.5531 33.9776 10.6796 34.3965 9.91751C34.8155 9.15537 35.3872 8.56913 36.1118 8.15877C36.8365 7.74842 37.646 7.54321 38.5405 7.54321C39.435 7.54321 40.2445 7.74842 40.9692 8.15877C41.6938 8.56913 42.2656 9.15537 42.6845 9.91751C43.1034 10.6796 43.3129 11.5531 43.3129 12.538C43.3129 13.5229 43.0978 14.3964 42.6675 15.1585C42.2373 15.9206 41.6485 16.5127 40.9012 16.9348C40.1653 17.3451 39.3501 17.5504 38.4556 17.5504ZM38.4556 15.8092C38.9538 15.8092 39.418 15.6861 39.8482 15.4399C40.2898 15.1937 40.6465 14.8243 40.9182 14.3319C41.1899 13.8394 41.3258 13.2415 41.3258 12.538C41.3258 11.8345 41.1956 11.2424 40.9352 10.7617C40.6748 10.2692 40.3295 9.89991 39.8992 9.65367C39.4689 9.40749 39.0047 9.28435 38.5065 9.28435C38.0083 9.28435 37.5441 9.40749 37.1139 9.65367C36.695 9.89991 36.3609 10.2692 36.1118 10.7617C35.8628 11.2424 35.7382 11.8345 35.7382 12.538C35.7382 13.5815 35.993 14.3905 36.5025 14.965C37.0233 15.5278 37.6743 15.8092 38.4556 15.8092Z" fill="#540000"/>
<path d="M29.3806 15.774H33.3717V17.3921H27.4445V5.16895H29.3806V15.774Z" fill="#540000"/>
<path d="M43.9678 17.8191C44.0596 18.4221 44.2395 18.9743 44.5077 19.4757C44.9153 20.2261 45.4758 20.8123 46.1891 21.2344C46.9024 21.6448 47.7006 21.85 48.5838 21.85C49.4783 21.85 50.2935 21.6448 51.0294 21.2344C51.7767 20.8123 52.3655 20.2202 52.7957 19.4581C53.077 18.9595 53.2665 18.4131 53.3641 17.8191H51.3509C51.2829 18.116 51.1814 18.3867 51.0464 18.6315C50.7746 19.124 50.418 19.4933 49.9764 19.7395C49.5462 19.9857 49.0819 20.1089 48.5838 20.1089C47.8025 20.1089 47.1515 19.8274 46.6307 19.2647C46.2941 18.8851 46.0687 18.4033 45.9544 17.8191H43.9678Z" fill="#540000"/>
</g>
<defs>
<clipPath id="clip0_15_219">
<rect width="114" height="22" fill="white"/>
</clipPath>
</defs>
</svg>
