<svg width="39" height="26" viewBox="0 0 39 26" fill="none" xmlns="http://www.w3.org/2000/svg">
<g clip-path="url(#clip0_15_280)">
<path d="M6.61017 9.84965L37.0337 17.7868C38.1928 18.0892 39 19.1207 39 20.2998V26H32.3898V23.2997L19.5007 19.9374L6.61017 23.2997V26H0V20.2998C3.00099e-06 19.1207 0.807221 18.0892 1.96627 17.7868L6.61083 16.5744L1.96627 15.3632C0.807207 15.0609 2.00002e-05 14.0293 0 12.8502V9.1C0 7.66408 1.18379 6.5 2.64407 6.5H6.61017V9.84965Z" fill="#0BDC85"/>
<path d="M36.356 6.5C37.8162 6.5 39.0001 7.66408 39.0001 9.1V13H32.3899V6.5H36.356Z" fill="#0BDC85"/>
<path d="M29.7458 0C31.2061 0 32.3899 1.16406 32.3899 2.6V6.5H6.61023V2.6C6.61023 1.16406 7.79404 1.83213e-08 9.2543 0H29.7458Z" fill="#0BDC85"/>
</g>
<defs>
<clipPath id="clip0_15_280">
<rect width="39" height="26" fill="white"/>
</clipPath>
</defs>
</svg>
