<svg width="91" height="30" viewBox="0 0 91 30" fill="none" xmlns="http://www.w3.org/2000/svg">
<g clip-path="url(#clip0_15_232)">
<path d="M85.6265 8.8713L79.275 0H91L85.6265 8.8713Z" fill="#1A1A1A"/>
<path d="M71.5895 0.00114883H75.7934L84.0995 11.6021L72.9569 29.9989L61.3406 29.9994L57.9005 25.1933L54.9896 30L39.8965 29.9994L36.4564 25.1933L33.5461 29.9989L8.59957 29.9994L0 17.9867L10.8936 0.00114883H20.418L9.75594 17.6042L12.7342 21.7646L29.0097 21.764L34.9322 11.9846L32.2488 8.23598H28.7601L23.086 17.603L24.381 19.4118H14.3517L13.3307 17.9855L24.2231 0.00114883H36.3828L39.5285 4.39485L42.1892 0.00229766L62.601 0.000574415L57.613 8.23598L46.7262 8.23657L44.6881 11.6014L44.6887 11.6021L41.0528 17.6042L44.031 21.7646H50.4532L52.235 18.8236H45.1188L44.4538 17.7259L48.7768 10.5888H66.7458L62.4969 17.6035L65.4751 21.764H68.4205L74.3433 11.9846L71.6596 8.23598H61.0904L66.0784 0H71.5895V0.00114883Z" fill="#1A1A1A"/>
</g>
<defs>
<clipPath id="clip0_15_232">
<rect width="91" height="30" fill="white"/>
</clipPath>
</defs>
</svg>
