<svg width="181" height="43" viewBox="0 0 181 43" fill="none" xmlns="http://www.w3.org/2000/svg">
<g clip-path="url(#clip0_26_709)">
<path d="M51.906 2.96108L44.9579 15.286C44.6409 15.8525 44.0487 16.1786 43.3898 16.1872L17.1823 16.3417C15.4057 16.3503 13.7124 17.0283 12.8033 18.6848C12.0025 20.1353 11.3686 21.6631 10.6596 23.1908C10.376 23.8088 10.3177 24.5641 10.4595 25.225C10.7681 26.6325 12.6865 27.302 13.7959 27.302H21.8116C22.5206 27.302 23.2295 26.8042 23.5382 26.1948L24.489 24.3066C24.806 23.68 25.4066 23.3024 26.1823 23.311L37.6095 23.3968C38.3268 23.3968 38.8689 23.8774 39.1108 24.4182C39.4278 25.1048 39.2693 25.7228 38.894 26.3407L36.033 31.1214L29.9941 41.8413C29.6938 42.382 29.2267 43.0172 28.5261 43.0172H15.6809C14.5048 43.0086 13.3371 42.3735 12.5113 41.5238L1.47618 30.1172C-0.133635 28.4607 -0.467275 25.8687 0.675444 23.8431L7.84872 11.089C8.21572 10.4367 8.75789 10.0762 9.45019 10.0591C10.0924 10.0419 10.7347 10.3595 11.0767 10.9946C11.6439 12.0417 12.6198 12.7713 13.6958 12.8743C14.8301 12.9772 16.173 12.6511 16.7819 11.5697L22.6373 1.15868C22.9877 0.523553 23.5048 0 24.2805 0H50.2544C51.0051 0 51.5807 0.326148 51.9143 0.849701C52.3397 1.52774 52.2813 2.28303 51.9143 2.9525L51.906 2.96108Z" fill="url(#paint0_linear_26_709)"/>
<path d="M66.3111 11.9468C67.7541 12.7364 68.6299 14.1183 68.9552 16.0923H66.9867C66.7531 14.9851 66.2694 14.1869 65.527 13.6805C64.7847 13.1741 63.8588 12.9252 62.7328 12.9252C61.3982 12.9252 60.2805 13.4488 59.3713 14.4959C58.4622 15.543 58.0034 17.1051 58.0034 19.1907C58.0034 20.9845 58.3788 22.4522 59.1294 23.5765C59.8801 24.7009 61.1063 25.2674 62.8078 25.2674C64.109 25.2674 65.185 24.8725 66.0358 24.0829C66.8866 23.2933 67.3203 22.0059 67.3453 20.2378H62.7494V18.5384H69.1971V26.6234H67.9209L67.4371 24.6751C66.7782 25.439 66.1859 25.9626 65.6771 26.263C64.818 26.7693 63.7253 27.0268 62.3991 27.0268C60.6892 27.0268 59.2129 26.4518 57.9867 25.2845C56.6438 23.834 55.9682 21.8342 55.9682 19.2937C55.9682 16.7532 56.6271 14.7534 57.9367 13.2514C59.1878 11.8266 60.7976 11.1143 62.7828 11.1143C64.1424 11.1143 65.3185 11.3889 66.3111 11.9382V11.9468Z" fill="white"/>
<path d="M83.1432 11.5176V13.32H78.197V26.632H76.1868V13.32H71.2406V11.5176H83.1516H83.1432Z" fill="white"/>
<path d="M85.1617 11.5176H95.8216V13.3715H87.1052V17.9633H95.1626V19.7142H87.1052V24.8381H95.9717V26.6405H85.1617V11.5176Z" fill="white"/>
<path d="M109.017 12.6168C110.035 13.621 110.594 14.7711 110.71 16.05H108.767C108.55 15.0801 108.125 14.3076 107.474 13.7326C106.832 13.1661 105.923 12.8743 104.763 12.8743C103.345 12.8743 102.194 13.3979 101.318 14.445C100.442 15.4921 100.009 17.0971 100.009 19.2599C100.009 21.028 100.401 22.4699 101.193 23.5685C101.986 24.6671 103.162 25.225 104.721 25.225C106.164 25.225 107.257 24.65 108.008 23.4827C108.408 22.8733 108.708 22.0665 108.9 21.0709H110.844C110.669 22.6587 110.11 23.9977 109.142 25.0705C107.991 26.3665 106.431 27.0188 104.48 27.0188C102.795 27.0188 101.377 26.4867 100.226 25.4224C98.7159 24.0148 97.9652 21.8434 97.9652 18.908C97.9652 16.6765 98.5324 14.8484 99.6668 13.4236C100.893 11.8701 102.578 11.0977 104.738 11.0977C106.573 11.0977 107.999 11.604 109.017 12.6082V12.6168Z" fill="white"/>
<path d="M113.463 11.5176H115.473V17.7659H123.022V11.5176H125.032V26.632H123.022V19.5683H115.473V26.632H113.463V11.5176Z" fill="white"/>
<path d="M133.548 24.4435C134.274 24.4435 134.866 24.3577 135.316 24.1946C136.175 23.877 136.609 23.2934 136.609 22.4351C136.609 21.9373 136.392 21.5511 135.967 21.2764C135.541 21.0104 134.874 20.77 133.957 20.5641L132.397 20.2036C130.862 19.8431 129.803 19.4569 129.219 19.0449C128.226 18.3411 127.726 17.2511 127.726 15.7663C127.726 14.4102 128.21 13.2772 129.169 12.3846C130.128 11.492 131.538 11.0371 133.398 11.0371C134.949 11.0371 136.275 11.4577 137.368 12.3074C138.461 13.1571 139.036 14.3844 139.095 15.998H136.134C136.084 15.0882 135.692 14.4359 134.974 14.0497C134.491 13.7922 133.898 13.672 133.181 13.672C132.389 13.672 131.755 13.8351 131.279 14.1698C130.804 14.5046 130.57 14.9595 130.57 15.5517C130.57 16.0924 130.804 16.4958 131.271 16.7619C131.571 16.9421 132.213 17.1481 133.189 17.3884L135.725 18.015C136.834 18.2896 137.677 18.6587 138.244 19.1136C139.12 19.8259 139.562 20.8559 139.562 22.212C139.562 23.568 139.045 24.7525 138.019 25.6623C136.993 26.5806 135.533 27.0355 133.656 27.0355C131.78 27.0355 130.228 26.5806 129.127 25.6794C128.026 24.7782 127.476 23.5337 127.476 21.9631H130.412C130.503 22.6583 130.687 23.1732 130.962 23.5166C131.463 24.1431 132.322 24.4521 133.531 24.4521L133.548 24.4435Z" fill="white"/>
<path d="M148.378 27.0528C146.268 27.0528 144.658 26.4606 143.549 25.2848C142.056 23.8343 141.305 21.7486 141.305 19.0279C141.305 16.3071 142.056 14.1614 143.549 12.771C144.658 11.5951 146.268 11.0029 148.378 11.0029C150.489 11.0029 152.09 11.5951 153.208 12.771C154.692 14.1614 155.435 16.247 155.435 19.0279C155.435 21.8087 154.692 23.8343 153.208 25.2848C152.098 26.4606 150.489 27.0528 148.378 27.0528ZM151.289 22.976C151.998 22.049 152.357 20.7359 152.357 19.0279C152.357 17.3199 151.998 16.0153 151.281 15.0798C150.564 14.1528 149.596 13.6894 148.378 13.6894C147.161 13.6894 146.185 14.1528 145.459 15.0798C144.733 16.0067 144.366 17.3199 144.366 19.0279C144.366 20.7359 144.733 22.049 145.459 22.976C146.185 23.9029 147.161 24.3664 148.378 24.3664C149.596 24.3664 150.564 23.9029 151.289 22.976Z" fill="white"/>
<path d="M168.238 14.1527H160.848V17.6373H167.321V20.2722H160.848V26.6321H157.787V11.4834H168.238V14.1441V14.1527Z" fill="white"/>
<path d="M181 11.4668V14.1532H176.588V26.6327H173.485V14.1532H169.056V11.4668H180.992H181Z" fill="white"/>
<path d="M83.7521 34.9755C83.7688 35.2931 83.8355 35.542 83.9606 35.7394C84.1942 36.1084 84.6029 36.2887 85.1951 36.2887C85.462 36.2887 85.6956 36.2458 85.9124 36.1685C86.3295 36.014 86.538 35.7308 86.538 35.3274C86.538 35.027 86.4463 34.8124 86.2711 34.6837C86.0876 34.5549 85.8123 34.4519 85.4287 34.3575L84.7197 34.1859C84.2609 34.0743 83.9273 33.9541 83.7354 33.8168C83.4018 33.5851 83.235 33.2418 83.235 32.7783C83.235 32.2805 83.4018 31.8685 83.7271 31.5509C84.0524 31.2334 84.5111 31.0703 85.1117 31.0703C85.6622 31.0703 86.1293 31.2076 86.513 31.4909C86.8967 31.7741 87.0885 32.2204 87.0885 32.8384H86.4045C86.3712 32.538 86.2961 32.3148 86.1793 32.1517C85.9625 31.8599 85.6038 31.714 85.095 31.714C84.678 31.714 84.386 31.8084 84.2025 31.9973C84.019 32.1861 83.9356 32.4007 83.9356 32.6496C83.9356 32.9242 84.044 33.1216 84.2526 33.2418C84.3944 33.319 84.7113 33.422 85.2034 33.5422L85.9375 33.7224C86.2878 33.8082 86.563 33.9284 86.7549 34.0743C87.0885 34.3318 87.2553 34.7094 87.2553 35.2072C87.2553 35.8252 87.0468 36.2629 86.6214 36.529C86.196 36.7951 85.7039 36.9238 85.1451 36.9238C84.4945 36.9238 83.9773 36.7436 83.6103 36.3917C83.2433 36.0398 83.0598 35.5677 83.0681 34.9669H83.7521V34.9755Z" fill="white"/>
<path d="M94.0866 32.0137C94.4453 32.5029 94.6205 33.1294 94.6205 33.9019C94.6205 34.7344 94.4119 35.421 94.0116 35.9703C93.5361 36.6141 92.8522 36.9402 91.9597 36.9402C91.1339 36.9402 90.475 36.657 89.9995 36.0905C89.5741 35.5498 89.3656 34.8632 89.3656 34.0306C89.3656 33.2839 89.5491 32.6402 89.9078 32.1081C90.3749 31.4214 91.0588 31.0781 91.968 31.0781C92.8772 31.0781 93.6279 31.3957 94.0783 32.0222L94.0866 32.0137ZM93.4444 35.5498C93.728 35.0777 93.8781 34.5284 93.8781 33.9105C93.8781 33.2582 93.7113 32.7346 93.3776 32.3312C93.044 31.9278 92.5936 31.7304 92.0181 31.7304C91.4425 31.7304 91.0088 31.9278 90.6501 32.3226C90.2915 32.7174 90.1247 33.3011 90.1247 34.065C90.1247 34.6829 90.2748 35.1979 90.5751 35.6184C90.8753 36.039 91.3675 36.2536 92.0431 36.2536C92.7187 36.2536 93.1524 36.0133 93.436 35.5412L93.4444 35.5498Z" fill="white"/>
<path d="M96.8475 31.2158H97.5815V36.0995H100.284V36.7603H96.8475V31.2158Z" fill="white"/>
<path d="M103.162 31.2158V34.649C103.162 35.0523 103.237 35.3871 103.387 35.6531C103.604 36.0565 103.979 36.2539 104.496 36.2539C105.122 36.2539 105.547 36.0394 105.772 35.6016C105.889 35.3613 105.956 35.0438 105.956 34.649V31.2158H106.69V34.3314C106.69 35.0094 106.598 35.5416 106.423 35.9021C106.098 36.5715 105.472 36.9062 104.563 36.9062C103.654 36.9062 103.028 36.5715 102.703 35.9021C102.528 35.533 102.436 35.0094 102.436 34.3314V31.2158H103.17H103.162Z" fill="white"/>
<path d="M113.079 31.2158V31.8767H111.261V36.7603H110.527V31.8767H108.708V31.2158H113.079Z" fill="white"/>
<path d="M115.264 31.2158H115.998V36.7603H115.264V31.2158Z" fill="white"/>
<path d="M122.98 32.0137C123.339 32.5029 123.514 33.1294 123.514 33.9019C123.514 34.7344 123.305 35.421 122.905 35.9703C122.429 36.6141 121.745 36.9402 120.853 36.9402C120.027 36.9402 119.368 36.657 118.893 36.0905C118.467 35.5498 118.259 34.8632 118.259 34.0306C118.259 33.2839 118.442 32.6402 118.801 32.1081C119.268 31.4214 119.952 31.0781 120.861 31.0781C121.77 31.0781 122.521 31.3957 122.972 32.0222L122.98 32.0137ZM122.338 35.5498C122.621 35.0777 122.771 34.5284 122.771 33.9105C122.771 33.2582 122.605 32.7346 122.271 32.3312C121.937 31.9278 121.487 31.7304 120.911 31.7304C120.336 31.7304 119.902 31.9278 119.543 32.3226C119.185 32.7174 119.018 33.3011 119.018 34.065C119.018 34.6829 119.168 35.1979 119.468 35.6184C119.769 36.039 120.261 36.2536 120.936 36.2536C121.612 36.2536 122.046 36.0133 122.329 35.5412L122.338 35.5498Z" fill="white"/>
<path d="M125.741 31.2158H126.6L129.286 35.6961V31.2158H129.986V36.7603H129.169L126.441 32.2801V36.7603H125.741V31.2158Z" fill="white"/>
<path d="M135.967 31.2158H136.701V36.0995H139.403V36.7603H135.967V31.2158Z" fill="white"/>
<path d="M141.497 31.2158H142.231V36.0995H144.933V36.7603H141.497V31.2158Z" fill="white"/>
<path d="M150.847 31.6192C151.223 31.9883 151.423 32.4088 151.464 32.8809H150.755C150.68 32.5204 150.522 32.2372 150.28 32.0312C150.046 31.8252 149.713 31.7136 149.287 31.7136C148.762 31.7136 148.345 31.9024 148.028 32.2887C147.711 32.6749 147.544 33.2585 147.544 34.0567C147.544 34.709 147.686 35.2326 147.978 35.636C148.27 36.0394 148.704 36.2453 149.271 36.2453C149.796 36.2453 150.205 36.0308 150.48 35.6102C150.63 35.3871 150.739 35.0952 150.806 34.7262H151.514C151.448 35.3098 151.239 35.799 150.889 36.1939C150.464 36.6659 149.896 36.9062 149.179 36.9062C148.562 36.9062 148.036 36.7088 147.619 36.3226C147.069 35.8076 146.785 35.0094 146.785 33.928C146.785 33.1126 146.994 32.4346 147.411 31.911C147.861 31.3446 148.478 31.0527 149.271 31.0527C149.946 31.0527 150.472 31.2416 150.839 31.6106L150.847 31.6192Z" fill="white"/>
</g>
<defs>
<linearGradient id="paint0_linear_26_709" x1="-0.000178602" y1="21.5" x2="52.2146" y2="21.5" gradientUnits="userSpaceOnUse">
<stop stop-color="#DF9500"/>
<stop offset="1" stop-color="#FF9C00"/>
</linearGradient>
<clipPath id="clip0_26_709">
<rect width="181" height="43" fill="white"/>
</clipPath>
</defs>
</svg>
