<svg width="99" height="30" viewBox="0 0 99 30" fill="none" xmlns="http://www.w3.org/2000/svg">
<g clip-path="url(#clip0_15_125)">
<path fill-rule="evenodd" clip-rule="evenodd" d="M26.5785 9.37163C26.5785 10.7275 26.5785 11.914 26.5785 13.0158V19.2878C26.5785 20.3896 26.5785 21.5761 26.5785 22.932C25.7675 23.8382 25.0928 24.5985 24.463 25.3119C23.8332 26.0246 23.249 26.6905 22.6206 27.4102C21.9922 28.1305 21.3188 28.9051 20.5121 29.8417C20.1659 29.9044 19.9932 29.936 19.6478 30.0001C18.7841 29.3135 18.3524 28.9727 17.4901 28.2978C18.0076 27.6856 18.3959 27.229 18.7841 26.7732C19.1725 26.3173 19.5614 25.8628 20.0796 25.2589C20.9439 25.9482 21.3764 26.2952 22.2422 26.9963C22.5883 26.599 22.7617 26.3999 23.1079 26.0047V23.2501C23.1079 22.4238 23.1079 21.5974 23.1079 20.4956C22.5883 21.0892 22.1986 21.5368 21.8089 21.9851C21.4192 22.4335 21.0303 22.8831 20.5114 23.485C20.1652 23.5477 19.9925 23.5793 19.647 23.6434C19.0425 23.1627 18.589 22.8046 18.1361 22.4486C17.6832 22.0926 17.2304 21.7373 16.6279 21.2683C16.6279 20.3077 16.6279 19.5075 16.6279 18.7604V16.5725C16.6279 15.8254 16.6279 15.0252 16.6279 14.0646C17.4318 13.1081 18.1024 12.3169 18.7294 11.5814C19.3564 10.846 19.9384 10.1662 20.5661 9.4377C21.1939 8.70915 21.8665 7.93237 22.6747 7.00684C23.0208 6.949 23.1942 6.92077 23.5411 6.86499C24.1477 7.3608 24.6034 7.73542 25.0584 8.1114C25.5134 8.48737 25.9705 8.86478 26.5785 9.37163ZM20.0796 10.8508V18.9022C20.9439 19.5915 21.3764 19.9385 22.2422 20.6396C22.5883 20.2423 22.7617 20.0439 23.1079 19.648V11.5966C22.2415 10.8907 21.8089 10.5409 20.9439 9.84742C20.5978 10.2482 20.425 10.4486 20.0796 10.8508Z" fill="#262745"/>
<path fill-rule="evenodd" clip-rule="evenodd" d="M46.6546 7.35602C47.1798 6.83817 47.5737 6.45254 47.9676 6.06691C48.3615 5.68128 48.7554 5.29772 49.2806 4.78882C49.6309 4.78882 49.8057 4.78882 50.1562 4.7902C50.7691 5.38586 51.2283 5.83553 51.6882 6.28658C52.1481 6.73763 52.6073 7.19006 53.2202 7.79741C53.2202 8.75809 53.2202 9.55826 53.2202 10.3054V15.0012C52.4619 15.7187 51.8293 16.3212 51.2396 16.8859C50.6497 17.4506 50.1014 17.9787 49.5116 18.5496C48.9218 19.1212 48.2892 19.7355 47.5302 20.4792C47.1798 20.1445 47.005 19.9772 46.6546 19.6446C46.6546 21.0005 46.6546 21.6788 46.6546 23.0346C47.1798 23.5339 47.4424 23.7846 47.9676 24.2886C47.3546 24.8877 46.8955 25.3395 46.4355 25.7933C45.9757 26.2471 45.5164 26.7016 44.9035 27.3124C44.2905 26.736 43.8314 26.307 43.3721 25.8794C42.913 25.4517 42.4537 25.0255 41.8415 24.4608C42.3667 23.9278 42.6286 23.662 43.1538 23.1331C43.1538 21.8784 43.1538 20.7498 43.1538 19.6962V10.8907C43.1538 9.83711 43.1538 8.70851 43.1538 7.4538C42.8041 7.12808 42.6285 6.96626 42.2789 6.6426C42.979 5.93332 43.3286 5.58074 44.0286 4.87972C44.7287 4.8563 45.079 4.84667 45.7791 4.83014C46.1294 5.16137 46.3042 5.32733 46.6546 5.65993V7.35602ZM46.6546 8.20369C46.6546 9.27731 46.6546 10.1718 46.6546 11.0071V16.2558C47.5301 17.0883 47.9676 17.5071 48.8431 18.3513C49.1935 18.0111 49.3684 17.841 49.7187 17.5029V9.45154C48.8431 8.60314 48.4057 8.18171 47.5302 7.34431C47.1798 7.68724 47.005 7.85801 46.6546 8.20369Z" fill="#262745"/>
<path d="M67.6364 6.64596C67.6364 7.74776 67.6364 8.71181 67.6364 9.60708C67.6364 10.5023 67.6364 11.3286 67.6364 12.155V17.664C68.1588 18.2307 68.4207 18.5151 68.9431 19.0867C69.9878 18.1949 70.5096 17.7535 71.5529 16.8783V8.82686C71.2054 8.44053 71.0313 8.24771 70.683 7.86348C71.3788 7.27674 71.7263 6.98477 72.4215 6.40563C73.1166 6.50411 73.4634 6.55506 74.1578 6.66111C74.5047 7.05294 74.6788 7.24989 75.0256 7.64381C75.0256 8.85851 75.0256 9.97203 75.0256 11.0181V22.4913C75.0256 23.5373 75.0256 24.6508 75.0256 25.8655C75.3725 26.2594 75.546 26.457 75.8921 26.8524C76.7588 26.1465 77.1916 25.7967 78.0565 25.1032C78.5753 25.7037 78.9644 26.1568 79.3527 26.6106C79.7418 27.0644 80.1301 27.5189 80.6474 28.1283C79.7848 28.808 79.3527 29.151 78.4878 29.8423C78.1425 29.7797 77.969 29.7494 77.6237 29.6888C76.8163 28.7564 76.1427 27.9851 75.5137 27.2682C74.8846 26.5514 74.2996 25.8889 73.6699 25.1796C73.04 24.4704 72.3646 23.7129 71.5529 22.8114V17.726C70.5966 18.5282 69.879 19.1363 69.1608 19.7484C68.4425 20.3607 67.7242 20.9763 66.7651 21.8067C66.4161 21.7696 66.242 21.7517 65.893 21.7166C65.2829 21.0617 64.8244 20.5734 64.3666 20.0865C63.9088 19.5997 63.4503 19.1142 62.8387 18.471C63.3625 18.0055 63.6245 17.7735 64.1482 17.3121V11.235C64.1482 10.2681 64.1482 9.23246 64.1482 7.98948C63.7993 7.61898 63.6245 7.43444 63.2755 7.06602C63.9741 6.44695 64.3231 6.13983 65.021 5.52832C65.7189 5.59512 66.0678 5.63024 66.7651 5.70462C67.114 6.08061 67.2881 6.26791 67.6364 6.64596Z" fill="#262745"/>
<path d="M4.65233 6.83317C4.65233 8.12161 4.65233 9.28059 4.65233 10.3631C4.65233 11.4449 4.65233 12.4503 4.65233 13.4288V16.3403C4.65233 17.3195 4.65233 18.3243 4.65233 19.4061V22.936C5.16138 23.2989 5.41625 23.4814 5.9267 23.8484C5.3313 24.6066 4.88544 25.1782 4.44029 25.7511C3.99444 26.324 3.54928 26.8984 2.95668 27.6683C2.36408 27.2516 1.92033 26.9417 1.47659 26.6333C1.03284 26.3247 0.589791 26.0183 0 25.6127C0.505535 24.9434 0.759005 24.6094 1.26594 23.9435V18.0419C1.26594 17.166 1.26594 16.3128 1.26594 15.4369C1.26594 14.561 1.26594 13.6616 1.26594 12.6934C1.26594 11.7252 1.26594 10.6874 1.26594 9.53536C0.928221 9.30121 0.759005 9.18414 0.421982 8.95141C1.09673 8.06034 1.43446 7.61686 2.11131 6.73332C2.78817 6.52811 3.1266 6.42688 3.80485 6.22925C4.14399 6.46958 4.31391 6.5894 4.65303 6.8318L4.65233 6.83317Z" fill="#262745"/>
<path fill-rule="evenodd" clip-rule="evenodd" d="M16.1975 11.1874C16.1975 12.148 16.1975 12.9482 16.1975 13.6953V18.3911C15.3943 19.3496 14.7251 20.1539 14.1017 20.908C13.4781 21.662 12.8995 22.3652 12.2775 23.126C11.6554 23.887 10.9891 24.7058 10.1908 25.6953C9.84881 25.7801 9.67751 25.8234 9.33623 25.9102C8.73801 25.3841 8.29006 24.9923 7.84279 24.6018C7.39556 24.2114 6.9476 23.8229 6.35219 23.3078V16.5277C7.1463 15.5188 7.8091 14.6835 8.42912 13.9074C9.04837 13.1313 9.6241 12.4131 10.2448 11.6446C10.8655 10.8754 11.5311 10.0546 12.3316 9.07606C12.6742 8.99611 12.8462 8.95621 13.1896 8.87769C13.7906 9.33361 14.2413 9.67861 14.6928 10.025C15.1443 10.3713 15.5958 10.7191 16.1982 11.1866L16.1975 11.1874ZM9.76316 13.0886V21.14C10.6176 21.7729 11.0459 22.0925 11.9026 22.737C12.2452 22.3169 12.4165 22.1069 12.7599 21.6889C12.7599 20.6153 12.7599 19.7208 12.7599 18.8855V16.4402C12.7599 15.6049 12.7599 14.7104 12.7599 13.6368C11.9019 12.9875 11.4736 12.6659 10.6183 12.0281C10.2764 12.451 10.1051 12.6638 9.76316 13.0886Z" fill="#262745"/>
<path fill-rule="evenodd" clip-rule="evenodd" d="M37.034 15.4348C36.2188 16.288 35.5398 17.0048 34.9066 17.677C34.2732 18.3491 33.6848 18.9764 33.0522 19.6561C32.4196 20.3357 31.7413 21.0664 30.9282 21.9506C30.5799 21.9905 30.4059 22.0112 30.0576 22.0525C29.4481 21.4479 28.9917 20.9969 28.5346 20.5472C28.0775 20.0975 27.6219 19.6499 27.0132 19.0563V12.2761C27.8241 11.3726 28.5003 10.6247 29.1322 9.92994C29.7641 9.23514 30.3504 8.59329 30.983 7.90607C31.6156 7.21881 32.2932 6.48542 33.107 5.61224C33.4559 5.57712 33.6301 5.55991 33.979 5.52686C34.5898 6.06191 35.0477 6.46614 35.5062 6.87174C35.9646 7.27734 36.4231 7.68429 37.034 8.23037V15.4348ZM30.4922 9.28817V17.3396C31.3629 18.0853 31.7989 18.4607 32.6702 19.2181C33.0192 18.8428 33.1933 18.6562 33.5423 18.283V10.2315C32.6702 9.46989 32.2342 9.09189 31.3629 8.34129C31.0146 8.71929 30.8405 8.90799 30.4922 9.28817Z" fill="#262745"/>
<path d="M41.404 5.83676V16.8548C41.9286 17.3375 42.1911 17.5792 42.7163 18.066C42.1041 18.6852 41.6449 19.152 41.1857 19.6203C40.7265 20.0886 40.2673 20.5582 39.6557 21.189C39.0435 20.6326 38.585 20.218 38.1265 19.8055C37.668 19.3923 37.2088 18.9813 36.598 18.4365C37.1218 17.8863 37.3843 17.6123 37.9082 17.0669V7.74357C37.5584 7.42956 37.3836 7.27255 37.0347 6.9606C37.7333 6.22928 38.083 5.865 38.7823 5.14125C39.4816 5.09512 39.8313 5.07445 40.5306 5.03589C40.8802 5.35541 41.0551 5.51587 41.4055 5.83745L41.404 5.83676Z" fill="#262745"/>
<path d="M62.8388 7.45314C62.315 7.91865 61.9218 8.26987 61.5286 8.62245C61.1354 8.97502 60.7422 9.32827 60.2177 9.80205C59.3435 8.89717 58.9069 8.44755 58.032 7.55437C57.6823 7.8753 57.5075 8.03572 57.1571 8.35867V13.8677C57.8571 13.2224 58.3816 12.7425 58.9062 12.2639C59.4306 11.7853 59.9551 11.3095 60.6545 10.6794C61.5286 10.7392 61.9653 10.7723 62.8381 10.8433C63.187 11.211 63.3619 11.3955 63.7108 11.7646V15.5782C62.8963 16.2979 62.2167 16.9039 61.5827 17.472C60.9486 18.0401 60.3595 18.571 59.7248 19.1467C59.0901 19.7224 58.4104 20.3422 57.5938 21.0928C57.2442 21.0755 57.0694 21.0673 56.719 21.0514C55.8441 20.1652 55.4067 19.7251 54.5318 18.8506C55.0571 18.3582 55.4509 17.9912 55.8441 17.6248C56.238 17.2585 56.6312 16.8935 57.1564 16.4101C58.0313 17.2984 58.4687 17.746 59.3428 18.646C59.6925 18.3279 59.8674 18.1696 60.217 17.8534V11.9209C59.6055 12.4739 59.1463 12.8919 58.6871 13.3106C58.2279 13.7293 57.7687 14.15 57.1564 14.7147C56.1068 14.6651 55.5815 14.6452 54.5318 14.6128C54.1815 14.263 54.0067 14.0887 53.6562 13.7403V10.7737C54.4729 10.0038 55.1539 9.3675 55.7887 8.77672C56.4241 8.18587 57.0132 7.64047 57.6486 7.05719C58.2833 6.47392 58.9637 5.8514 59.7796 5.11182C60.1292 5.13385 60.3041 5.14556 60.6537 5.16897C61.5279 6.07659 61.9646 6.53314 62.8374 7.45177L62.8388 7.45314Z" fill="#262745"/>
<path d="M80.2153 8.55068V11.9408C81.0779 11.2583 81.7249 10.7529 82.3711 10.2502C83.0165 9.74753 83.6619 9.24758 84.5214 8.58856C84.8653 8.66431 85.0372 8.70218 85.381 8.77996C85.9819 9.50858 86.4316 10.0581 86.8821 10.609C87.3318 11.1599 87.7815 11.7122 88.3801 12.4524C88.9795 12.0062 89.4277 11.6743 89.8767 11.3438C90.3248 11.0132 90.773 10.6841 91.3693 10.2495C91.7101 10.3397 91.8804 10.3859 92.2212 10.4781C92.8167 11.2329 93.2634 11.8024 93.7093 12.3732C94.1551 12.9441 94.601 13.5157 95.195 14.2828C94.6862 14.6429 94.4314 14.8241 93.9218 15.1877V22.8155C94.4314 23.4684 94.6862 23.7962 95.195 24.4532C94.6018 24.8732 94.1559 25.1913 93.7093 25.5101C93.2626 25.829 92.8167 26.1499 92.2212 26.5817C91.6249 25.8269 91.1775 25.2629 90.7293 24.701C90.2819 24.1391 89.8337 23.5786 89.2351 22.8349C89.7485 22.4554 90.0048 22.2668 90.5167 21.8907V14.2628C90.0041 13.6211 89.7477 13.3015 89.2351 12.6638C88.3809 13.2967 87.9534 13.6162 87.0962 14.2607V21.041C87.6096 21.6711 87.8667 21.9872 88.3801 22.622C87.7815 23.0683 87.3318 23.4057 86.8821 23.7452C86.4316 24.084 85.9819 24.4249 85.381 24.8828C84.7801 24.1543 84.3281 23.6102 83.8768 23.0683C83.4255 22.5263 82.9735 21.9851 82.3711 21.2682C82.8876 20.8661 83.1462 20.6657 83.6619 20.2676V17.6123C83.6619 16.8211 83.6619 16.087 83.6619 15.2958V12.6404C83.1462 12.0214 82.8876 11.7128 82.3711 11.0979C81.5092 11.7686 81.0779 12.1067 80.2153 12.7885V19.5687C80.7334 20.1767 80.992 20.4812 81.5092 21.0933C80.906 21.5657 80.4525 21.9231 79.9997 22.2819C79.5461 22.6406 79.0933 23.0008 78.4878 23.4849C77.8823 22.7825 77.4288 22.2584 76.9744 21.7358C76.5198 21.2132 76.0649 20.6918 75.4582 20.0012C75.9785 19.5763 76.2383 19.3649 76.758 18.9448V15.6993C76.758 14.7325 76.758 13.8345 76.758 12.8677V9.62221C76.4117 9.22418 76.2383 9.02581 75.8914 8.63056C76.5844 8.06588 76.9307 7.78561 77.6229 7.22852C78.3151 7.34972 78.6605 7.41169 79.352 7.54043C79.6973 7.94401 79.8708 8.14576 80.2153 8.55068Z" fill="#262745"/>
<path d="M99 12.0536C97.9808 12.7457 97.4697 13.0961 96.4467 13.8054C95.9433 13.145 95.5642 12.6527 95.1858 12.1603C94.8075 11.6679 94.4283 11.1776 93.9218 10.5255C94.9341 9.79487 95.4391 9.43405 96.4467 8.71997C96.9586 9.38237 97.3415 9.88097 97.7253 10.3809C98.1075 10.8809 98.4904 11.3828 99 12.0536Z" fill="#262745"/>
<path d="M42.2985 2.40468C41.5908 3.11397 41.2369 3.47068 40.5299 4.18753C39.8306 4.2261 39.4809 4.24744 38.7816 4.29289C38.09 3.66004 37.7445 3.34603 37.0536 2.72076C37.5739 2.17261 37.9643 1.76357 38.3547 1.35522C38.7451 0.94686 39.1355 0.539883 39.6557 0C40.1845 0.476529 40.5805 0.835995 40.9772 1.19683C41.3739 1.55767 41.7692 1.9192 42.2985 2.40468Z" fill="#262745"/>
</g>
<defs>
<clipPath id="clip0_15_125">
<rect width="99" height="30" fill="white"/>
</clipPath>
</defs>
</svg>
