<svg width="29" height="29" viewBox="0 0 29 29" fill="none" xmlns="http://www.w3.org/2000/svg">
<path d="M28.0091 9.72491L18.881 0.596771C18.527 0.242771 18.0466 0.0404857 17.5409 0.0615571C17.0478 0.0784142 16.5926 0.289129 16.2639 0.655771C14.2916 2.86827 13.1159 5.81406 13.1159 8.52806V9.8092L1.23578 21.6893C0.477212 22.4478 0.0599976 23.4551 0.0599976 24.5297C0.0599976 25.6043 0.477212 26.6116 1.23578 27.3701C2.01964 28.154 3.04793 28.5459 4.08043 28.5459C5.10871 28.5459 6.137 28.154 6.92086 27.3701L18.7967 15.4943H20.0779C22.7961 15.4943 25.7376 14.3143 27.9501 12.342C28.3168 12.0175 28.5317 11.5623 28.5444 11.0651C28.557 10.5678 28.3631 10.0789 28.0134 9.72913L28.0091 9.72491ZM6.078 26.5315C4.97385 27.6356 3.17857 27.6356 2.07443 26.5315C1.53921 25.9963 1.24843 25.2841 1.24843 24.5297C1.24843 23.7711 1.53921 23.0589 2.07443 22.5237L13.7016 10.9007L17.7094 14.9001L6.08221 26.5315H6.078ZM27.1621 11.457C25.1561 13.2396 22.5095 14.3058 20.0779 14.3058H18.7883L14.3001 9.82184V8.52806C14.3001 6.09641 15.3663 3.44984 17.1531 1.44806C17.2585 1.32584 17.4102 1.2542 17.5788 1.24999C17.7347 1.24999 17.9201 1.3132 18.0424 1.43541L27.1705 10.5636C27.2927 10.6858 27.3601 10.8543 27.3559 11.0271C27.3517 11.1957 27.2843 11.3516 27.1621 11.457ZM12.9431 16.5057L11.1604 18.2841C11.0466 18.4021 10.8949 18.4569 10.739 18.4569C10.5873 18.4569 10.4356 18.4021 10.3218 18.2841C10.09 18.0523 10.09 17.6773 10.3218 17.4455L12.1002 15.6671C12.332 15.4353 12.7071 15.4353 12.9389 15.6671C13.1706 15.8988 13.1749 16.2739 12.9431 16.5057Z" fill="#919191" stroke="#919191" stroke-width="0.12" stroke-miterlimit="10"/>
</svg>
