<svg width="27" height="27" viewBox="0 0 27 27" fill="none" xmlns="http://www.w3.org/2000/svg">
<path d="M9.45706 5.58853C10.9826 5.58853 12.2258 4.34532 12.2258 2.81975C12.2258 1.29418 10.9826 0.0551758 9.45706 0.0551758C7.93149 0.0551758 6.69249 1.29418 6.69249 2.81975C6.69249 4.34532 7.93149 5.58853 9.45706 5.58853ZM9.45706 1.16353C10.3716 1.16353 11.1175 1.90525 11.1175 2.81975C11.1175 3.73425 10.3716 4.48018 9.45706 4.48018C8.54256 4.48018 7.80085 3.73425 7.80085 2.81975C7.80085 1.90525 8.54256 1.16353 9.45706 1.16353ZM5.58414 11.1177H4.47999V9.45725C4.47999 7.93168 5.71899 6.69268 7.24456 6.69268H11.6696C13.1951 6.69268 14.4341 7.93168 14.4341 9.45725V11.1177H13.33V9.45725C13.33 8.54275 12.5841 7.80103 11.6696 7.80103H7.24456C6.33006 7.80103 5.58414 8.54275 5.58414 9.45725V11.1177ZM25.6989 10.7342C25.1511 10.2369 24.4304 9.97982 23.6971 10.0135C22.9554 10.0472 22.2727 10.3717 21.7754 10.9196L17.6454 15.4584C17.2998 14.232 16.1704 13.3302 14.8303 13.3302H2.81956C1.29399 13.3302 0.0549927 14.5692 0.0549927 16.0947V23.8406C0.0549927 25.3662 1.29399 26.6052 2.81956 26.6052H15.2391L25.9012 14.6408C26.9084 13.5072 26.8199 11.754 25.6989 10.7342ZM25.0752 13.8991L14.7418 25.4968H2.81956C1.90506 25.4968 1.16335 24.7551 1.16335 23.8364V16.0947C1.16335 15.1802 1.90506 14.4343 2.81956 14.4343H14.8303C15.8333 14.4343 16.6508 15.2519 16.6508 16.2549C16.6508 17.1525 15.9808 17.9237 15.0958 18.0502L8.83335 18.8635L8.97663 19.9635L15.2475 19.1459C16.3769 18.9857 17.2872 18.1724 17.6201 17.1272L22.593 11.6655C22.8922 11.3326 23.3052 11.1387 23.7519 11.1219C24.1986 11.1008 24.6243 11.2525 24.953 11.5517C25.6273 12.167 25.6821 13.2164 25.0752 13.8991Z" fill="#919191" stroke="#919191" stroke-width="0.11" stroke-miterlimit="10"/>
</svg>
